<svg xmlns="http://www.w3.org/2000/svg" viewBox="0 0 1200 700" role="img" aria-label="Tableau de bord">
  <rect width="1200" height="700" fill="#f4f4f5"/>
  <rect x="0" y="0" width="1200" height="52" fill="#e4e4e7"/>
  <circle cx="34" cy="26" r="7" fill="#d4d4d8"/><circle cx="58" cy="26" r="7" fill="#d4d4d8"/><circle cx="82" cy="26" r="7" fill="#d4d4d8"/>
  <rect x="118" y="14" width="420" height="24" rx="12" fill="#fafafa"/>
  <rect x="0" y="52" width="230" height="648" fill="#18181b"/>
  <rect x="28" y="88" width="120" height="10" rx="5" fill="#FF6B2B"/>
  <g fill="#3f3f46">
    <rect x="28" y="132" width="160" height="9" rx="4.5"/><rect x="28" y="166" width="140" height="9" rx="4.5"/>
    <rect x="28" y="200" width="150" height="9" rx="4.5"/><rect x="28" y="234" width="120" height="9" rx="4.5"/>
    <rect x="28" y="268" width="145" height="9" rx="4.5"/><rect x="28" y="302" width="130" height="9" rx="4.5"/>
  </g>
  <g transform="translate(276 104)">
    <text x="0" y="0" font-family="PT Sans, Segoe UI, sans-serif" font-size="40" font-weight="700" fill="#18181b">Tableau de bord</text>
    <text x="0" y="40" font-family="DM Sans, Segoe UI, sans-serif" font-size="22" fill="#71717a">Ventes du jour, marges, alertes</text>
  </g>
  <g transform="translate(276 190)">
    <rect x="0" y="0" width="270" height="110" rx="14" fill="#ffffff"/><rect x="0" y="0" width="5" height="110" rx="2.5" fill="#FF6B2B"/>
    <rect x="300" y="0" width="270" height="110" rx="14" fill="#ffffff"/><rect x="300" y="0" width="5" height="110" rx="2.5" fill="#FF6B2B"/>
    <rect x="600" y="0" width="270" height="110" rx="14" fill="#ffffff"/><rect x="600" y="0" width="5" height="110" rx="2.5" fill="#FF6B2B"/>
  </g>
  <rect x="276" y="330" width="870" height="320" rx="16" fill="#ffffff"/>
  <g fill="#e4e4e7">
    <rect x="308" y="368" width="806" height="14" rx="7"/><rect x="308" y="412" width="806" height="14" rx="7"/>
    <rect x="308" y="456" width="806" height="14" rx="7"/><rect x="308" y="500" width="806" height="14" rx="7"/>
    <rect x="308" y="544" width="620" height="14" rx="7"/><rect x="308" y="588" width="700" height="14" rx="7"/>
  </g>
  <text x="1146" y="676" text-anchor="end" font-family="DM Sans, Segoe UI, sans-serif" font-size="16" fill="#a1a1aa">Maquette illustrative</text>
</svg>
